<?xml version="1.0" encoding="utf-8"?>
<!-- Generator: Adobe Illustrator 22.0.0, SVG Export Plug-In . SVG Version: 6.00 Build 0)  -->
<svg version="1.1" id="Calque_1" xmlns="http://www.w3.org/2000/svg" xmlns:xlink="http://www.w3.org/1999/xlink" x="0px" y="0px"
	 viewBox="0 0 1646.6 472.8" style="enable-background:new 0 0 1646.6 472.8;" xml:space="preserve">
<style type="text/css">
	.st0{fill:#231F20;}
	.st1{fill:#F9A51B;}
	.st2{fill:#FFFFFF;}
</style>
<path class="st0" d="M906.7,51.6V16c0-5.4,4.1-9,9.1-9h159.6c5.1,0,9.2,3.7,9.2,9v30.6c-0.1,5-4.4,11.8-12,22.4l-82.7,118
	c30.7-0.7,63.2,3.9,91.1,19.6c6.3,3.5,8,8.7,8.5,13.9v38.1c0,5.3-5.7,11.3-11.7,8.2c-49.2-25.8-114.3-28.6-168.6,0.3
	c-5.6,3-11.4-3-11.4-8.2v-36.2c0-5.8,0.1-15.7,5.9-24.5l95.7-137.4h-83.4C910.8,60.6,906.7,57,906.7,51.6z M324.6,274.1h-48.6
	c-4.6-0.3-8.3-3.8-8.7-8.2l0-249.3c0-5,4.2-9,9.4-9l45.2,0c4.7,0.3,8.5,3.8,8.8,8.4v32.6h0.9c11.8-31.5,34-46.2,63.9-46.2
	c30.4,0,49.4,14.7,63,46.2c11.8-31.5,38.5-46.2,67.1-46.2c20.4,0,42.6,8.4,56.2,27.3c15.4,20.9,12.2,51.4,12.2,78.1l0,157.3
	c0,5-4.2,9-9.4,9h-48.5c-4.9-0.3-8.7-4.2-8.7-8.9l0-132.2c0-10.5,0.9-36.7-1.4-46.7c-3.7-16.8-14.5-21.5-28.6-21.5
	c-11.7,0-24,7.9-29,20.5c-5,12.6-4.5,33.5-4.5,47.7v132.1c0,5-4.2,9-9.4,9h-48.5c-4.9-0.3-8.7-4.2-8.7-8.9L397.4,133
	c0-27.8,4.6-68.7-29.9-68.7c-34.9,0-33.6,39.9-33.6,68.7l0,132.1C333.9,270.1,329.8,274.1,324.6,274.1L324.6,274.1z M1221.9,2.4
	c72,0,111,61.9,111,140.6c0,76-43.1,136.4-111,136.4c-70.7,0-109.3-62-109.3-139.1C1112.6,62.7,1151.6,2.4,1221.9,2.4z M1222.4,53.2
	c-35.9,0-38.1,48.8-38.1,79.2c0,30.4-0.5,95.4,37.7,95.4c37.5,0,39.3-52.4,39.3-84.3c0-21-0.9-46.2-7.2-66.1
	C1248.6,60.1,1237.7,53.2,1222.4,53.2L1222.4,53.2z M1426.4,274.1h-48.4c-4.9-0.3-8.7-4.2-8.7-8.9l-0.1-249.3
	c0.4-4.6,4.4-8.2,9.3-8.2l45.1,0c4.3,0.2,7.8,3.1,8.6,7v38.1h0.9c13.6-34.1,32.5-50.3,66.1-50.3c21.8,0,43.1,7.9,56.7,29.4
	c12.6,19.9,12.6,53.5,12.6,77.6v156.8c-0.6,4.5-4.5,7.9-9.2,7.9h-48.7c-4.4-0.3-8.1-3.6-8.7-7.9V130.9c0-27.2,3.2-67.1-30.4-67.1
	c-11.8,0-22.6,7.9-28,20c-6.8,15.2-7.7,30.4-7.7,47.2v134.2C1435.7,270.1,1431.5,274.1,1426.4,274.1z M229.5,228.3
	c-8.8-12.3-18.3-22.2-18.3-45v-75.7c0-32,2.3-61.4-21.4-83.5C171.2,6.3,140.3,0,116.7,0C70.5,0,18.9,17.2,8.1,74.3
	c-1.2,6.1,3.3,9.3,7.3,10.2l47.1,5.1c4.4-0.2,7.6-4.6,8.4-8.9c4-19.7,20.5-29.2,39-29.2c10,0,21.3,3.7,27.2,12.6
	c6.8,10,5.9,23.7,5.9,35.2v6.3c-28.2,3.2-65,5.3-91.3,16.8C21.3,135.6,0,162.4,0,201.8c0,50.5,31.8,75.7,72.6,75.7
	c34.6,0,53.4-8.2,80.1-35.3c8.8,12.8,11.7,18.9,27.8,32.4c3.6,1.9,8.3,1.8,11.5-1.1l0.1,0.1c9.7-8.6,27.3-24,37.2-32.3
	C233.2,238,232.6,232.7,229.5,228.3L229.5,228.3z M133.9,206.5c-7.7,13.6-20,22-33.6,22c-18.6,0-29.5-14.2-29.5-35.2
	c0-41.3,37.1-48.8,72.2-48.8V155C143,173.9,143.5,189.7,133.9,206.5z M865.9,228.3c-8.9-12.3-18.3-22.2-18.3-45v-75.7
	c0-32,2.3-61.4-21.4-83.5C807.6,6.3,776.7,0,753.1,0c-46.2,0-97.8,17.2-108.6,74.3c-1.2,6.1,3.3,9.3,7.2,10.2l47,5.1
	c4.4-0.2,7.6-4.6,8.5-8.9c4.1-19.7,20.5-29.2,39-29.2c10,0,21.4,3.7,27.2,12.6c6.8,10,5.9,23.7,5.9,35.2v6.3
	c-28.1,3.2-64.9,5.3-91.2,16.8c-30.4,13.2-51.8,39.9-51.8,79.4c0,50.5,31.8,75.7,72.6,75.7c34.5,0,53.4-8.2,80.1-35.3
	c8.8,12.8,11.7,18.9,27.8,32.4c3.7,1.9,8.2,1.8,11.4-1.1l0.1,0.1c9.7-8.6,27.4-24,37.3-32.3C869.7,238,869.1,232.7,865.9,228.3
	L865.9,228.3z M770.4,206.5c-7.7,13.6-20,22-33.6,22c-18.6,0-29.5-14.2-29.5-35.2c0-41.3,37.1-48.8,72.2-48.8V155
	C779.5,173.9,779.9,189.7,770.4,206.5z"/>
<g>
	<path class="st1" d="M971.5,370.9C878.9,437,749.9,472.8,636.1,472.8c-159.4,0-301.5-57.7-411-156.6c-10.1-9.1-3.6-19.9,9-12.6
		c119.1,68.9,261.8,109.2,411.6,109.2c101,0,208.3-20.1,310.2-63.5C978.2,339.7,987.4,359.6,971.5,370.9L971.5,370.9z"/>
	<path class="st1" d="M1011.1,326.3c-11.7-15-77.1-7.1-106.5-3.6c-8.8,1.1-10.3-6.7-2.2-12.3c52.2-36.5,137.7-25.9,147.6-13.8
		c10,12.4-2.6,98.2-51.5,139.1c-7.5,6.3-14.6,2.9-11.3-5.4C998.1,402.8,1022.7,341.2,1011.1,326.3L1011.1,326.3z"/>
</g>
<path class="st2" d="M1623.8,233.4c5.5,0,10.1,1.9,14,5.8c3.8,3.8,5.8,8.4,5.8,13.9c0,5.5-1.9,10.1-5.8,13.9
	c-3.8,3.8-8.5,5.8-14,5.8c-5.5,0-10.1-1.9-13.9-5.8c-3.8-3.8-5.7-8.5-5.7-13.9c0-5.4,1.9-10.1,5.8-13.9
	C1613.7,235.3,1618.3,233.4,1623.8,233.4L1623.8,233.4z M1646.6,253c0-6.3-2.2-11.6-6.7-16.1c-4.4-4.4-9.8-6.6-16.1-6.6
	c-6.3,0-11.6,2.2-16.1,6.6c-4.4,4.4-6.7,9.8-6.7,16.1c0,6.3,2.2,11.7,6.6,16.1c4.4,4.5,9.8,6.7,16.1,6.7c6.3,0,11.7-2.2,16.2-6.7
	C1644.3,264.7,1646.6,259.3,1646.6,253z M1629.8,248.1c0,1.9-0.9,3.2-2.6,3.8c-1,0.4-2.4,0.5-4.3,0.5h-4v-8.9h3.8
	c2.5,0,4.3,0.3,5.4,0.9C1629.2,245.1,1629.8,246.3,1629.8,248.1z M1614.6,240.4v24.9h4.3v-9.8h3.5c2.4,0,4,0.3,5,0.8
	c1.6,1,2.4,2.8,2.4,5.7v2l0.1,0.8l0.1,0.3c0,0.1,0.1,0.2,0.1,0.3h4.1l-0.2-0.3c-0.1-0.2-0.2-0.6-0.2-1.3c-0.1-0.7-0.1-1.3-0.1-1.9
	v-1.8c0-1.3-0.5-2.6-1.4-3.9c-0.9-1.3-2.3-2.1-4.3-2.4c1.5-0.2,2.7-0.6,3.6-1.2c1.6-1.1,2.5-2.7,2.5-4.9c0-3.1-1.3-5.2-3.9-6.3
	c-1.5-0.6-3.7-0.9-6.8-0.9L1614.6,240.4L1614.6,240.4z"/>
</svg>
