<?xml version="1.0" encoding="utf-8"?>
<!-- Generator: Adobe Illustrator 22.0.0, SVG Export Plug-In . SVG Version: 6.00 Build 0)  -->
<svg version="1.1"
	 id="Calque_1" xmlns:cc="http://creativecommons.org/ns#" xmlns:dc="http://purl.org/dc/elements/1.1/" xmlns:inkscape="http://www.inkscape.org/namespaces/inkscape" xmlns:rdf="http://www.w3.org/1999/02/22-rdf-syntax-ns#" xmlns:sodipodi="http://sodipodi.sourceforge.net/DTD/sodipodi-0.dtd" xmlns:svg="http://www.w3.org/2000/svg"
	 xmlns="http://www.w3.org/2000/svg" xmlns:xlink="http://www.w3.org/1999/xlink" x="0px" y="0px" viewBox="0 0 41.6 41.6"
	 style="enable-background:new 0 0 41.6 41.6;" xml:space="preserve">
<style type="text/css">
	.st0{fill:#9D9D9C;stroke:#9D9D9C;stroke-width:2;stroke-miterlimit:10;}
</style>
<g transform="translate(0,-952.36218)">
	<path class="st0" d="M35.5,958.5c-0.3-0.3-0.7-0.3-1,0l-13.7,13.7L7.1,958.5c-0.3-0.3-0.7-0.3-1,0c-0.3,0.3-0.3,0.7,0,1l13.7,13.7
		L6.1,986.9c-0.3,0.3-0.3,0.7,0,1c0.3,0.3,0.7,0.3,1,0l13.7-13.7l13.7,13.7c0.3,0.3,0.7,0.3,1,0s0.3-0.7,0-1l-13.7-13.7l13.7-13.7
		C35.8,959.2,35.8,958.7,35.5,958.5z"/>
</g>
</svg>
